<svg width="150" height="87" viewBox="0 0 150 87" fill="none" xmlns="http://www.w3.org/2000/svg">
<path d="M55.4015 8.57375C62.9275 11.785 70.7449 9.08211 70.2145 3.6096C72.1959 10.2402 88.2934 14.1217 93.5478 8.53148C98.8914 19.2499 120.481 18.2899 126.34 10.3274C121.726 20.6097 131.169 32.7672 143.462 29.9616C133.269 33.5056 131.371 54.1583 146.398 61.6052C129.428 61.624 124.348 70.3165 124.517 80.3199C114.428 72.1558 99.2612 76.752 95.8982 83.1519C91.7025 74.6188 67.4745 77.8316 62.9042 82.0396C61.2717 71.6053 37.4533 69.1939 32.8014 77.6125C33.3569 67.4697 20.0465 59.7667 8.69819 65.8729C14.2697 59.1867 16.3653 46.0582 1.99756 42.1197C16.2985 42.1039 16.9735 29.8967 13.2015 26.7566C22.2032 29.8175 36.3999 22.2147 31.2564 13.2972C30.3439 12.5657 29.6525 11.7119 29.2623 10.7447C30.1131 11.602 30.7709 12.4555 31.2564 13.2972C37.4233 18.2406 53.6925 17.5957 55.4015 8.57375Z" fill="white"/>
<path d="M29.2623 10.7447C39.1263 20.6844 23.0529 30.1064 13.2015 26.7566C16.9735 29.8967 16.2985 42.1039 1.99756 42.1197C16.3653 46.0582 14.2697 59.1867 8.69819 65.8729C20.0465 59.7667 33.3569 67.4697 32.8014 77.6125C37.4533 69.1939 61.2717 71.6053 62.9042 82.0396C67.4745 77.8316 91.7025 74.6188 95.8982 83.1519C99.2612 76.7521 114.428 72.1558 124.517 80.3199C124.348 70.3165 129.428 61.624 146.398 61.6052C131.371 54.1583 133.269 33.5056 143.462 29.9616C131.169 32.7672 121.726 20.6097 126.34 10.3274C120.481 18.2899 98.8914 19.2499 93.5478 8.53148C88.2934 14.1217 72.1959 10.2402 70.2145 3.6096C70.7449 9.08211 62.9275 11.785 55.4015 8.57375C53.4397 18.9307 32.2897 18.248 29.2623 10.7447Z" stroke="black" stroke-width="2.88083" stroke-linecap="round" stroke-linejoin="round"/>
<path d="M42.2789 44.8805C43.295 45.0824 44.1979 45.0812 45.4392 44.8765C46.816 44.6716 48.1701 44.3765 49.7046 43.9682C51.0811 43.6053 52.5473 42.678 53.8106 42.0218C54.2617 41.7729 55.7957 40.8906 56.0881 40.055C56.1556 39.8518 56.2675 39.0841 55.2065 39.0854C54.6873 39.0861 54.0781 39.29 53.8524 39.358C53.4237 39.494 52.9724 39.6526 52.2504 39.9469C50.6259 40.581 47.2863 41.7139 44.871 41.7395C42.8845 41.7419 42.5232 41.6747 42.8157 40.9294C42.8607 40.7713 42.9282 40.6132 43.1084 40.2969C44.8197 36.841 48.2704 34.331 50.8881 33.6279C51.362 33.5145 52.0164 33.3331 52.513 33.3325C52.9645 33.3319 53.5972 33.8052 53.3947 34.3246C53.1697 34.9344 52.8549 35.9054 53.8932 35.9042C55.0897 35.9027 55.9911 34.7051 56.4635 33.3727C56.756 32.6274 57.0258 31.7241 56.754 31.0246C56.5275 30.3477 56.075 29.5582 54.7657 29.5598C53.3887 29.5615 51.3806 30.3541 50.6812 30.671C48.3348 31.6446 46.4179 33.2046 44.9748 34.4705C44.0052 35.3747 43.2162 36.2561 42.3822 37.2052C41.4129 38.29 40.8272 39.284 40.4447 40.3003C39.7024 42.4457 40.021 44.477 42.2789 44.8805ZM61.5486 44.4952C64.9121 44.4911 68.0485 43.381 72.0181 40.7124C73.0557 40.0113 73.912 38.8815 74.407 37.5265C74.8344 36.3747 75.5095 34.6131 75.3951 33.4168C75.3033 32.2205 74.602 31.0024 74.1949 30.3934C73.8557 29.8972 73.1556 29.6272 72.1397 29.6284C68.3248 29.6332 64.3103 32.5954 60.8831 35.7826C59.5753 36.9806 58.4034 38.5622 57.7735 40.3012C57.2336 41.8143 57.2796 42.5141 58.1385 43.3708C58.9522 44.1599 59.9233 44.4973 61.5486 44.4952ZM69.6384 33.1079C70.3607 33.107 71.6704 33.4214 71.9196 34.0758C72.3727 35.4522 72.7566 35.5194 72.3067 36.7616C72.0367 37.4843 71.6312 38.2071 71.1578 38.7044C70.3463 39.6083 68.3605 40.1977 67.2547 40.4474C65.7428 40.9008 60.1677 41.4043 60.8651 39.4621C61.495 37.7683 64.1774 34.6498 67.1335 33.7431C68.0135 33.4711 68.8483 33.1089 69.6384 33.1079ZM73.8752 44.7056C74.3493 44.705 75.2744 44.4104 75.7701 43.6197C77.1219 41.5638 78.4512 39.4628 79.8481 37.3391C79.871 37.6099 79.8713 37.8582 79.8946 38.4C79.8726 38.8741 79.9183 39.3029 79.9646 40.2284C80.0333 40.9958 80.0342 41.7633 80.2383 42.5306C80.3971 43.1399 80.1276 44.2463 81.0081 44.3355C81.8885 44.3344 83.5792 42.5038 83.6018 42.4812C84.3232 41.7128 84.5935 41.2384 84.9314 40.6962C85.8325 39.2052 86.7337 37.782 88.2213 35.9291C88.1094 36.7193 87.975 37.5773 87.8855 38.1869C87.6397 40.2414 87.4386 41.9121 87.3274 43.199C87.3055 43.7408 87.3285 44.0793 87.938 44.0786C88.7958 44.0775 90.3293 42.8566 90.8918 41.366C90.9367 41.208 90.9591 41.0499 91.0937 40.4177C91.7892 36.9179 91.8099 35.4731 92.6631 31.7248C92.6854 31.499 93.1342 29.3765 92.0281 29.3779C92.0055 29.3779 90.1099 29.8995 89.3436 30.8034C88.442 31.8881 87.8111 32.8369 87.2252 33.7181C85.3775 36.3615 85.1969 36.3843 83.7548 38.508C83.4581 35.8447 83.5016 34.5805 83.7477 32.7743C84.0832 30.3133 83.8798 30.1104 83.5864 30.1108C82.2319 30.1125 80.6087 31.7624 79.9778 32.7338C79.347 33.7279 78.8738 34.4283 78.1305 35.7159C77.1167 37.3876 75.6747 39.5565 75.0216 40.7763C74.5711 41.567 73.5796 42.9452 73.2197 43.9615C73.0397 44.4358 73.3786 44.7062 73.8752 44.7056ZM94.2652 44.1384C96.342 44.1358 98.3732 43.7495 100.292 43.544C102.007 43.3612 102.165 43.3385 103.88 42.8623C104.918 42.6352 106.768 41.9557 107.241 40.6233C107.466 39.9909 106.834 39.9466 106.54 39.9018C106.314 39.8795 106.066 39.8572 105.75 39.8576C102.161 39.8621 99.2498 40.6784 95.9541 40.8179C96.0438 40.3212 96.1786 39.8244 96.4264 39.35C97.2841 39.2587 98.6382 39.0313 99.8569 38.804C101.73 38.463 103.694 38.122 105.815 37.5776C106.334 37.4641 107.327 37.1694 107.642 36.3337C107.822 35.8369 107.438 35.6342 107.031 35.3864C106.444 35.0485 105.518 35.0497 104.864 35.0505C102.742 35.0531 100.508 35.7557 97.6187 36.0979C97.8662 35.443 98.1587 34.6525 98.6771 34.0424C98.7448 33.9971 98.993 33.9065 99.8507 33.7926C100.686 33.7238 101.498 33.5197 102.378 33.4057C103.552 33.2688 104.365 33.1549 105.2 33.1087C106.487 33.1071 108.383 32.9242 108.99 31.2981C109.372 30.2592 108.266 29.922 106.483 29.9242L106.392 29.9243C105.467 29.9255 104.519 30.0169 103.571 30.131C101.946 30.3136 100.862 30.315 99.102 30.7912C98.8764 30.8818 97.4543 30.9287 97.0266 31.9451C96.1038 34.1133 94.91 36.2142 94.0776 38.4952C93.6501 39.647 93.2231 41.1374 92.8862 42.5374C92.6841 43.3954 93.2946 44.1396 94.2652 44.1384ZM61.074 65.1347C62.4284 65.133 63.1714 63.5293 63.3738 62.9647C63.5988 62.3549 63.8914 61.6999 64.0938 61.0902C64.4988 60.0287 64.7459 59.0351 65.0159 58.2899C65.6458 56.5509 66.6369 54.8792 67.3344 52.9821C67.5818 52.3046 67.7608 50.9951 66.7224 50.9964C65.368 50.9981 64.4897 52.7148 64.2873 53.2794C63.9499 54.2505 63.6352 55.357 63.2753 56.3507C62.9604 57.254 62.4423 58.2028 62.0824 59.1739C61.79 60.0547 61.4975 60.8451 61.0926 61.9517C60.9127 62.4937 60.6876 63.0358 60.4626 63.623C60.2376 64.2328 60.2388 65.1357 61.074 65.1347ZM66.7165 65.6694C67.7098 65.6682 68.2049 64.4937 68.3623 63.9969C68.5199 63.6129 68.6774 63.229 68.8349 62.8225C69.0374 62.2804 69.2173 61.7159 69.3971 61.1061C69.7571 60.1124 70.1621 59.0961 70.522 58.0121C70.8837 58.4406 71.0195 58.7564 71.404 59.3203C72.1051 60.3804 72.6699 60.7183 72.919 61.3952C73.4392 62.2072 74.0495 62.816 74.6598 63.4473C75.0667 63.8982 75.2251 64.2141 75.4284 64.3718C75.6996 64.5972 75.8586 65.3871 76.6939 65.4087C77.3485 65.4078 78.0254 65.1813 78.9478 62.6293C79.5327 61.0032 79.8918 59.3774 80.5893 57.4804C80.8592 56.7351 81.0162 55.9448 81.2862 55.1995C81.5337 54.5446 81.7812 53.8896 82.0512 53.1895C82.3436 52.3539 82.8378 50.4345 81.5286 50.4361C80.8062 50.437 80.0618 50.8895 79.7919 51.6799C79.6569 51.9961 79.5896 52.3573 79.5673 52.5831C78.7805 55.2027 78.4214 56.851 77.3415 59.8321C76.867 59.4489 76.3464 58.3435 75.5104 57.6673C74.1543 56.3597 73.7913 54.9154 72.9314 53.2235C72.7504 52.8625 72.9521 51.6884 71.9814 51.6896C71.7556 51.6899 71.5074 51.7805 71.2367 51.8711C70.1086 52.3466 69.6807 53.2049 69.3208 54.1761C68.5109 56.3893 67.9265 58.4443 67.2066 60.4317C67.0041 60.9737 66.779 61.4932 66.554 62.0804C65.8116 64.1129 65.3847 65.6711 66.7165 65.6694ZM82.6496 65.5141C83.2591 65.5133 83.7326 65.0613 84.0933 64.6996C84.7698 64.1344 86.0777 62.959 86.1902 62.6654C86.4151 62.0104 86.0081 61.5143 85.3535 61.5151C84.6311 61.516 83.8864 61.6976 83.458 62.0593C82.9168 62.5114 82.1052 63.3928 81.8803 64.0477C81.5878 64.8382 82.0853 65.5148 82.6496 65.5141Z" fill="black"/>
</svg>
